# xmcd CD database file
#
# Track frame offsets:
#	150
#	28982
#	49865
#	74765
#	90380
#	108572
#	134075
#	166692
#	189280
#	215487
#	229185
#	247042
#	261447
#	280540
#	289935
#	307025
#
# Disc length: 4196 seconds
#
# Revision: 0
# Processed by: cddbd v1.5.2PL0 Copyright (c) Steve Scherf et al.
# Submitted via: CDex 1.51
#
DISCID=f8106210
DTITLE=Stevie Ray Vaughan - Unplugged... and More
DYEAR=1990
DGENRE=Blues
TTITLE0=Life Without You
TTITLE1=Boogie
TTITLE2=Texas Flood
TTITLE3=Pride And Joy
TTITLE4=Instrumental#1
TTITLE5=Lenny
TTITLE6=Instrumental#2
TTITLE7=Superstition
TTITLE8=Voodoo Chile
TTITLE9=Instrumental#3
TTITLE10=Pride And Joy
TTITLE11=Scuttle Buttin
TTITLE12=Crossfire
TTITLE13=Jam
TTITLE14=Sailing Shoes
TTITLE15=The Star Spangled Banner
EXTD=YEAR: 1990
EXTT0=
EXTT1=
EXTT2=
EXTT3=
EXTT4=
EXTT5=
EXTT6=
EXTT7=
EXTT8=
EXTT9=
EXTT10=
EXTT11=
EXTT12=
EXTT13=
EXTT14=
EXTT15=
PLAYORDER=
